<svg width="138" height="138" viewBox="0 0 138 138" fill="none" xmlns="http://www.w3.org/2000/svg">
<rect width="138" height="138" rx="12" fill="#101010"/>
<rect x="21" y="21" width="96" height="96" rx="48" stroke="#8F9194" stroke-width="4"/>
<path d="M74.298 60.588C73.3473 60.1747 72.3967 59.968 71.446 59.968C69.5033 59.968 67.8293 60.6707 66.424 62.076C65.0187 63.4813 64.316 65.1553 64.316 67.098V87H60.1V67.098C60.1 64.866 60.6787 62.8407 61.836 61.022C63.0347 59.162 64.5847 57.7773 66.486 56.868L66.61 56.806C68.1393 56.1033 69.7513 55.752 71.446 55.752C74.0913 55.752 76.4473 56.558 78.514 58.17L74.298 60.588Z" fill="#CFE7FF"/>
</svg>
